<svg width="57" height="14" viewBox="0 0 57 14" fill="none" xmlns="http://www.w3.org/2000/svg">
<g clip-path="url(#clip0_1583_1917)">
<path fill-rule="evenodd" clip-rule="evenodd" d="M52.2054 5C54.8542 5 57.0101 7.00962 57.0101 9.5L52.2054 14C54.8542 14 57.0101 11.9904 57.0101 9.5L52.2054 5ZM50.727 13.7788L52.9343 11.7115H48.0166C48.6121 12.6827 49.5772 13.4327 50.727 13.7788ZM47.5444 10.6154H54.1047L55.2956 9.5L54.1047 8.375H47.5444C47.4417 8.73077 47.3904 9.10577 47.3904 9.49038C47.4006 9.88462 47.452 10.2596 47.5444 10.6154ZM48.0166 7.28846H52.9343L50.727 5.21154C49.5772 5.56731 48.6121 6.30769 48.0166 7.28846Z" fill="white"/>
<path fill-rule="evenodd" clip-rule="evenodd" d="M3.94236 11.6827V10.5577H1.32439V6.34613H0V11.6827H3.94236ZM9.57871 9.52882V9.51921C9.57871 9.21151 9.51711 8.91344 9.39391 8.64421C9.27071 8.37498 9.09618 8.13459 8.87032 7.93267C8.65472 7.73075 8.38779 7.5769 8.09006 7.46151C7.78206 7.34613 7.45353 7.28844 7.10447 7.28844C6.74514 7.28844 6.41661 7.34613 6.10861 7.46151C5.80061 7.5769 5.54395 7.74036 5.31808 7.94228C5.09222 8.14421 4.91769 8.38459 4.79449 8.65382C4.67129 8.92305 4.60969 9.21151 4.60969 9.52882V9.54805C4.60969 9.85575 4.67129 10.1538 4.79449 10.4231C4.91769 10.6923 5.09222 10.9327 5.31808 11.1346C5.53368 11.3365 5.80061 11.4904 6.09834 11.6057C6.40634 11.7211 6.73487 11.7788 7.08393 11.7788C7.44326 11.7788 7.77179 11.7211 8.07979 11.6057C8.38779 11.4904 8.64445 11.3269 8.87032 11.125C9.09618 10.9231 9.27071 10.6827 9.39391 10.4134C9.51711 10.1346 9.57871 9.84613 9.57871 9.52882ZM8.28512 9.54805C8.28512 9.71151 8.25432 9.85575 8.20299 9.99998C8.15166 10.1442 8.06952 10.2692 7.96686 10.375C7.86419 10.4807 7.74099 10.5673 7.59726 10.625C7.45353 10.6827 7.279 10.7211 7.0942 10.7211C6.9094 10.7211 6.74514 10.6923 6.60141 10.625C6.45767 10.5577 6.32421 10.4711 6.22154 10.3654C6.10861 10.2596 6.02648 10.125 5.97514 9.99036C5.91354 9.84613 5.89301 9.69228 5.89301 9.53844V9.51921C5.89301 9.35575 5.92381 9.21151 5.97514 9.06728C6.02648 8.92305 6.10861 8.79805 6.21128 8.69228C6.31394 8.58651 6.43714 8.49998 6.58087 8.44228C6.7246 8.38459 6.89914 8.34613 7.08393 8.34613C7.25847 8.34613 7.42273 8.37498 7.57673 8.44228C7.72046 8.50959 7.85393 8.59613 7.96686 8.7019C8.07979 8.80767 8.16192 8.94228 8.21326 9.0769C8.27486 9.22113 8.29539 9.37498 8.29539 9.52882V9.54805H8.28512ZM15.328 10.7019V7.30767H14.0241V7.93267C13.8496 7.74998 13.5519 7.50959 13.3157 7.38459C11.9914 6.67305 10.3692 7.84613 10.3692 9.29805V9.31728C10.3692 10.4519 11.2316 11.3269 12.4739 11.3269C13.1309 11.3269 13.6237 11.0961 14.0447 10.625V10.8365C14.0447 11.6538 13.5724 12.1346 12.7305 12.1346C12.1454 12.1346 11.6834 11.9615 11.1803 11.7019L10.7388 12.6154C11.3651 12.9231 12.0735 13.1057 12.7716 13.1057C14.4553 13.1057 15.328 12.3461 15.328 10.7019ZM13.9933 9.31728C13.9933 9.91344 13.48 10.3173 12.8537 10.3173C12.2172 10.3173 11.6731 9.93267 11.6731 9.31728V9.29805C11.6731 8.7019 12.1967 8.21152 12.8229 8.21152C13.4492 8.21152 13.9933 8.69228 13.9933 9.29805V9.31728ZM17.7714 11.6827V7.30767H16.4676V11.6827H17.7714ZM23.1409 10.9904L22.3811 10.2692C22.0731 10.5384 21.6522 10.7307 21.2107 10.7307C20.4818 10.7307 20.0095 10.1154 20.0095 9.47113V9.4519C20.0095 8.84613 20.4715 8.24998 21.1594 8.24998C21.6111 8.24998 22.0115 8.42305 22.3195 8.72113L23.1203 7.91344C22.607 7.38459 21.9191 7.19228 21.1697 7.19228C19.8145 7.19228 18.7262 8.19228 18.7262 9.47113V9.49036C18.7262 10.75 19.8145 11.7884 21.1594 11.7884C21.9499 11.7788 22.607 11.5384 23.1409 10.9904Z" fill="white"/>
<path fill-rule="evenodd" clip-rule="evenodd" d="M29.1673 8.29814V8.27891C29.1673 7.99045 29.116 7.72122 29.0133 7.49045C28.9106 7.25007 28.7566 7.04814 28.5616 6.87507C28.3665 6.70199 28.1201 6.56737 27.8429 6.48083C27.5555 6.38468 27.2372 6.3366 26.8779 6.3366H24.0648V11.6828H25.3892V10.2693H26.7547C27.0935 10.2693 27.4117 10.2308 27.6992 10.1443C27.9969 10.0578 28.2536 9.93276 28.4692 9.7693C28.6848 9.60583 28.8593 9.3943 28.9928 9.15391C29.0954 8.91353 29.1673 8.62507 29.1673 8.29814ZM27.8224 8.31737C27.8224 8.55776 27.73 8.75968 27.5452 8.92314C27.3604 9.0866 27.1037 9.16353 26.7752 9.16353H25.3687V7.45199H26.7444C27.0729 7.45199 27.3399 7.52891 27.5247 7.67314C27.7197 7.81737 27.8121 8.02891 27.8121 8.30776V8.31737H27.8224ZM31.2617 11.6828V6.23083H29.9578V11.6828H31.2617ZM36.9083 11.6828V7.29814H35.6044V9.75968C35.6044 10.2597 35.2451 10.7404 34.6702 10.7404C33.9926 10.7404 33.7257 10.2501 33.7257 9.75968V7.29814H32.4218V10.1539C32.4218 11.0962 33.2021 11.7501 34.2493 11.7501C34.8447 11.7501 35.2554 11.4808 35.5942 11.0578V11.6731H36.9083V11.6828ZM45.4501 11.6828V8.87506C45.4501 7.92314 44.7006 7.19237 43.6432 7.19237C43.0169 7.19237 42.5446 7.52891 42.1442 7.98083C41.8876 7.50007 41.2511 7.19237 40.6967 7.19237C40.1012 7.19237 39.7008 7.3943 39.3723 7.84622V7.29814H38.0684V11.6731H39.3723V9.27891C39.3723 8.78853 39.5365 8.25968 40.2449 8.25968C40.9431 8.25968 41.0971 8.79814 41.0971 9.27891V11.6731H42.4009V9.27891C42.4009 8.78853 42.6062 8.25968 43.2941 8.25968C43.982 8.25968 44.1462 8.79814 44.1462 9.27891V11.6731H45.4501V11.6828Z" fill="white"/>
<path d="M17.1246 6.59618C17.5555 6.59618 17.9049 6.26901 17.9049 5.86541C17.9049 5.46182 17.5555 5.13464 17.1246 5.13464C16.6937 5.13464 16.3444 5.46182 16.3444 5.86541C16.3444 6.26901 16.6937 6.59618 17.1246 6.59618Z" fill="white"/>
<path fill-rule="evenodd" clip-rule="evenodd" d="M17.1246 5.24267C16.7465 5.24267 16.4523 5.52805 16.4523 5.86544C16.4523 6.20283 16.7465 6.48821 17.1246 6.48821C17.5026 6.48821 17.7968 6.20283 17.7968 5.86544C17.7968 5.52805 17.5026 5.24267 17.1246 5.24267ZM16.2363 5.86544C16.2363 5.39564 16.6408 5.02667 17.1246 5.02667C17.6084 5.02667 18.0128 5.39564 18.0128 5.86544C18.0128 6.33524 17.6084 6.70421 17.1246 6.70421C16.6408 6.70421 16.2363 6.33524 16.2363 5.86544Z" fill="white"/>
</g>
<path d="M0.23999 0.199982H1.29999C1.57732 0.199982 1.80932 0.293315 1.99599 0.479981C2.18532 0.669315 2.27999 0.895982 2.27999 1.15998C2.27999 1.42398 2.18532 1.65065 1.99599 1.83998C1.80932 2.02665 1.57732 2.11998 1.29999 2.11998H0.87999V2.99998H0.23999V0.199982ZM0.87999 1.51998H1.29999C1.39866 1.51998 1.47999 1.48532 1.54399 1.41598C1.60799 1.34665 1.63999 1.26131 1.63999 1.15998C1.63999 1.05865 1.60799 0.973315 1.54399 0.903982C1.47999 0.834648 1.39866 0.799982 1.29999 0.799982H0.87999V1.51998Z" fill="white"/>
<path d="M6.22783 2.63598C5.94517 2.91598 5.60117 3.05598 5.19583 3.05598C4.7905 3.05598 4.4465 2.91598 4.16383 2.63598C3.88117 2.35598 3.73983 2.01065 3.73983 1.59998C3.73983 1.18932 3.88117 0.843982 4.16383 0.563982C4.4465 0.283982 4.7905 0.143982 5.19583 0.143982C5.60117 0.143982 5.94517 0.283982 6.22783 0.563982C6.5105 0.843982 6.65183 1.18932 6.65183 1.59998C6.65183 2.01065 6.5105 2.35598 6.22783 2.63598ZM4.37983 1.59998C4.37983 1.84532 4.45717 2.04532 4.61183 2.19998C4.7665 2.35465 4.96117 2.43198 5.19583 2.43198C5.42783 2.43198 5.62117 2.35465 5.77583 2.19998C5.93317 2.04265 6.01183 1.84265 6.01183 1.59998C6.01183 1.35732 5.93317 1.15732 5.77583 0.999982C5.62117 0.845315 5.42783 0.767982 5.19583 0.767982C4.96117 0.767982 4.7665 0.845315 4.61183 0.999982C4.45717 1.15465 4.37983 1.35465 4.37983 1.59998Z" fill="white"/>
<path d="M9.47108 2.99998H8.74308L7.97108 0.199982H8.64308L9.12708 2.15998L9.66708 0.199982H10.1871L10.7271 2.15998L11.2111 0.199982H11.8831L11.1111 2.99998H10.3831L9.92708 1.34798L9.47108 2.99998Z" fill="white"/>
<path d="M14.0833 1.88798V2.38398H15.2033V2.99998H13.4433V0.199982H15.1833V0.815982H14.0833V1.27998H15.0833V1.88798H14.0833Z" fill="white"/>
<path d="M19.0044 2.99998H18.3164L17.7884 2.07998H17.4844V2.99998H16.8444V0.199982H17.9644C18.231 0.199982 18.4577 0.293315 18.6444 0.479981C18.831 0.666648 18.9244 0.893315 18.9244 1.15998C18.9244 1.32798 18.8764 1.48532 18.7804 1.63198C18.687 1.77865 18.563 1.89198 18.4084 1.97198L19.0044 2.99998ZM17.9644 0.799982H17.4844V1.51998H17.9644C18.0524 1.51998 18.127 1.48532 18.1884 1.41598C18.2524 1.34665 18.2844 1.26131 18.2844 1.15998C18.2844 1.05865 18.2524 0.973315 18.1884 0.903982C18.127 0.834648 18.0524 0.799982 17.9644 0.799982Z" fill="white"/>
<path d="M21.2253 1.88798V2.38398H22.3453V2.99998H20.5853V0.199982H22.3253V0.815982H21.2253V1.27998H22.2253V1.88798H21.2253Z" fill="white"/>
<path d="M23.9864 0.199982H25.1064C25.4904 0.199982 25.8131 0.334649 26.0744 0.603982C26.3357 0.873315 26.4664 1.20532 26.4664 1.59998C26.4664 1.99732 26.3357 2.33065 26.0744 2.59998C25.8157 2.86665 25.4931 2.99998 25.1064 2.99998H23.9864V0.199982ZM24.6264 2.38398H25.1064C25.3277 2.38398 25.5064 2.31332 25.6424 2.17198C25.7811 2.03065 25.8504 1.83998 25.8504 1.59998C25.8504 1.35998 25.7811 1.17065 25.6424 1.03198C25.5064 0.887982 25.3277 0.815982 25.1064 0.815982H24.6264V2.38398Z" fill="white"/>
<path d="M32.1222 1.54798C32.3516 1.69732 32.4662 1.90798 32.4662 2.17998C32.4662 2.42265 32.3796 2.61998 32.2062 2.77198C32.0329 2.92398 31.8182 2.99998 31.5622 2.99998H30.3862V0.199982H31.4822C31.7302 0.199982 31.9396 0.274648 32.1102 0.423982C32.2809 0.570648 32.3662 0.762648 32.3662 0.999982C32.3662 1.22665 32.2849 1.40931 32.1222 1.54798ZM31.4822 0.799982H31.0262V1.29598H31.4822C31.5542 1.29598 31.6129 1.27331 31.6582 1.22798C31.7036 1.17998 31.7262 1.11998 31.7262 1.04798C31.7262 0.975982 31.7036 0.917315 31.6582 0.871982C31.6129 0.823982 31.5542 0.799982 31.4822 0.799982ZM31.0262 2.39998H31.5622C31.6422 2.39998 31.7062 2.37598 31.7542 2.32798C31.8022 2.27732 31.8262 2.21198 31.8262 2.13198C31.8262 2.05198 31.8022 1.98798 31.7542 1.93998C31.7062 1.88932 31.6422 1.86398 31.5622 1.86398H31.0262V2.39998Z" fill="white"/>
<path d="M35.4761 0.199982H36.2041L35.2641 1.92398V2.99998H34.6241V1.92398L33.6841 0.199982H34.4121L34.944 1.27998L35.4761 0.199982Z" fill="white"/>
<defs>
<clipPath id="clip0_1583_1917">
<rect width="57" height="9" fill="white" transform="translate(0 5)"/>
</clipPath>
</defs>
</svg>
